<?xml version="1.0" encoding="utf-8"?>
<svg version="1.1" id="Layer_1" xmlns="http://www.w3.org/2000/svg" xmlns:xlink="http://www.w3.org/1999/xlink" x="0px" y="0px"
	 viewBox="0 0 220 70" style="enable-background:new 0 0 220 70;" xml:space="preserve">
<style type="text/css">
	.st0{fill:#F16A27;}
	.st1{fill:#201F1F;}
	.st2{fill:#F7F7F7;}
	.st3{fill:#FFFFFF;}
	.st4{fill:#E4E4E4;}
</style>
<polygon class="st0" points="-0.1,0 69.9,0 69.9,7.2 69.9,70 31.4,70 -0.1,70 "/>
<path class="st1" d="M65.4,12c-3.1,12-20.6,2.4-26.7,7.5c-1-1.7-1.2-3.7-0.5-5.6c-1.8,1.7-2.5,4.2-1.9,6.6c-1-0.7-1.7-1.8-1.8-3.1
	c-1.3,1.5-1.3,5.7,0.2,7.4c-2.9,4.9-4.5,11.4-4.4,16.6c-2.1-0.4-3.8,0-5.2,1.3c-4.3,4.1-2.5,9.8,0.2,12.1c2.6,2.3,7.2,2.5,11,1.3
	C35.8,62.3,37,66.8,39.2,70h30.7V23.3v-2.8V16C68.8,14.3,67.9,13.2,65.4,12z"/>
<path class="st2" d="M37,53.7l-2.8-8.2c-2-0.8-4.7-1.6-6.3-0.4c-1.5,1.1-2.3,2.5-2,4.1c0.2,1.2,0.9,2.6,2.1,3.4
	C30.1,54.1,33.8,54.2,37,53.7"/>
<path class="st3" d="M58,35.1c-3.4-4.2-8.8-5.6-13.5-3.6s-7.9,7.1-7.9,12.9c0,5.7,3.1,10.8,7.8,12.9c-3.2,5.7-2,10,1.3,12.7H70V30.9
	C65.6,29.8,61,31.3,58,35.1"/>
<rect x="69.5" y="30.9" class="st3" width="0.6" height="39.1"/>
<path class="st1" d="M57.4,55.6c-0.7-0.8-3-2.8-3.6-0.7c-0.1,0.5,0.3,0.9,1,0.8C55.9,55.7,56.3,55.5,57.4,55.6"/>
<path class="st1" d="M58.3,55.6c0.7-0.8,3-2.8,3.6-0.7c0.1,0.5-0.3,0.9-1,0.8C59.9,55.7,59.4,55.5,58.3,55.6"/>
<path class="st1" d="M53.4,64.6c2.7,0.7,8.2-0.3,9.2-3.6c-0.5-0.2-0.9-0.3-1.4-0.4c0.9-0.5,1.8-0.4,2.6,0s1.4,1.1,1.5,2.1
	c-0.3-0.3-0.7-0.6-1.1-0.9C61.5,66.1,55.4,66.1,53.4,64.6"/>
<path class="st1" d="M57.9,67c-0.9,0-1.9-0.1-2.7-0.4c0.7,0.9,1.6,1.5,2.7,1.5c1,0,2-0.5,2.7-1.5C59.7,66.8,58.8,67,57.9,67"/>
<path class="st1" d="M43.3,42.4c-0.6,0.1-1,0.3-1,1c-0.1,1.1,0,2.4,0.2,3.5c0.1,0.8,0.4,1.5,1.2,1.8c2.2,0.8,6.1,0.7,8.4,0.4
	c1.1-0.2,1.5-0.3,2-1.4c0.4-0.8,0.7-1.7,0.9-2.5c0.6-2,0.1-2.3-1.8-2.6C50.3,42,46.3,42,43.3,42.4 M61.1,41.3
	c2.5-0.6,5.9-0.7,8.7-0.6v1.5c-2.5-0.1-5.2,0-7.4,0.4c-1.9,0.4-2.4,0.7-1.8,2.6c0.3,0.8,0.5,1.7,0.9,2.5c0.5,1,0.9,1.2,2,1.4
	c1.7,0.3,4.2,0.4,6.2,0.1v1.5c-2.2,0.3-4.6,0.1-6.8-0.2c-1.5-0.2-2.1-0.8-2.8-2.2c-0.5-1-0.8-2.6-1.4-3.4c-0.3-0.4-0.6-0.5-1-0.5
	s-0.8,0.1-1,0.5c-0.6,0.8-0.9,2.4-1.4,3.4c-0.7,1.3-1.3,1.9-2.8,2.2c-2.7,0.4-5.7,0.5-8.4,0c-1.9-0.4-2.9-1.2-3.2-3.2
	c-0.1-0.5-0.1-1.1-0.2-1.6c0-0.6-0.4-0.6-0.9-0.7c-0.6-0.1-0.8-0.5-0.8-1.1v-1c0-0.8,0.4-1.3,1.2-1.2c0.6,0,1.5-0.4,2.2-0.5
	c0.8-0.2,1.8-0.3,2.6-0.3c2.8-0.2,6.7-0.1,9.5,0.6c1,0.2,2.2,0.8,3.3,0.9C58.9,42.2,60.1,41.6,61.1,41.3z"/>
<path class="st1" d="M50.2,44c0.3,0,0.5,0,0.7,0.1c-0.3,0.1-0.5,0.4-0.5,0.7c0,0.4,0.3,0.7,0.7,0.7s0.7-0.3,0.7-0.7
	c0.2,0.3,0.3,0.7,0.3,1.1c0,1.1-0.9,1.9-1.9,1.9c-1.1,0-1.9-0.9-1.9-1.9S49.1,44,50.2,44"/>
<path class="st1" d="M65.5,44c0.3,0,0.5,0,0.7,0.1c-0.3,0.1-0.5,0.4-0.5,0.7c0,0.4,0.3,0.7,0.7,0.7c0.4,0,0.7-0.3,0.7-0.7
	c0.2,0.3,0.3,0.7,0.3,1.1c0,1.1-0.9,1.9-1.9,1.9c-1.1,0-1.9-0.9-1.9-1.9C63.6,44.9,64.5,44,65.5,44"/>
<path class="st4" d="M50.8,43.2c-0.9-0.1-1.8-0.1-2.6-0.1c-1.5,0-3,0-4.4,0.3c-0.3,0-0.4,0.1-0.4,0.4c-0.1,0.9,0,2.1,0.1,3.1
	c0.1,0.5,0.2,1,0.7,1.2c0.3,0.1,0.6,0.2,0.9,0.3c-0.2-0.2-0.3-0.6-0.3-0.9c-0.1-0.9-0.2-2.1-0.1-3.1c0-0.3,0.1-0.4,0.4-0.4
	C47.2,43.6,48.5,43.4,50.8,43.2"/>
<path class="st4" d="M64.9,43.2c0.9-0.1,1.8-0.1,2.6-0.1c0.8,0,1.5,0,2.3,0v0.7C68.2,43.5,66.9,43.4,64.9,43.2"/>
<g>
	<path d="M106.3,41.1c0,3.3-1.2,6.1-3.5,8.4c-2.3,2.3-5.1,3.5-8.4,3.5s-6.1-1.2-8.4-3.5s-3.5-5.1-3.5-8.4c0-3.3,1.2-6.1,3.5-8.4
		c2.3-2.3,5.1-3.5,8.4-3.5s6.1,1.2,8.4,3.5C105.1,35.1,106.3,37.9,106.3,41.1z M94.4,32.7c-2.3,0-4.3,0.8-6,2.5s-2.5,3.6-2.5,6
		c0,2.3,0.8,4.3,2.5,6s3.6,2.5,6,2.5c2.3,0,4.3-0.8,6-2.5s2.5-3.6,2.5-6c0-2.3-0.8-4.3-2.5-6C98.8,33.5,96.8,32.7,94.4,32.7z"/>
	<path d="M128,47.2c0.5,0,0.9,0.2,1.2,0.5s0.5,0.7,0.5,1.2s-0.2,0.9-0.5,1.2c-2.2,1.9-4.8,2.9-7.7,2.9c-3.3,0-6.1-1.2-8.4-3.5
		s-3.5-5.1-3.5-8.4s1.2-6.1,3.5-8.4c2.3-2.3,5.1-3.5,8.4-3.5s6.1,1.2,8.4,3.5c2.3,2.3,3.5,5.1,3.5,8.4c0,0.5-0.2,0.9-0.5,1.2
		s-0.7,0.5-1.2,0.5h-18.5c0.3,1.6,1.1,3.1,2.3,4.3c1.7,1.7,3.6,2.5,6,2.5c2.1,0,3.9-0.7,5.5-2C127.3,47.3,127.6,47.2,128,47.2z
		 M129.8,39.4c-0.3-1.6-1.1-3.1-2.3-4.3c-1.7-1.7-3.6-2.5-6-2.5c-2.3,0-4.3,0.8-6,2.5c-1.2,1.2-2,2.7-2.3,4.3H129.8z"/>
	<path d="M155.1,47.2c0.5,0,0.9,0.2,1.2,0.5s0.5,0.7,0.5,1.2s-0.2,0.9-0.5,1.2c-2.2,1.9-4.8,2.9-7.7,2.9c-3.3,0-6.1-1.2-8.4-3.5
		s-3.5-5.1-3.5-8.4s1.2-6.1,3.5-8.4c2.3-2.3,5.1-3.5,8.4-3.5s6.1,1.2,8.4,3.5c2.3,2.3,3.5,5.1,3.5,8.4c0,0.5-0.2,0.9-0.5,1.2
		s-0.7,0.5-1.2,0.5h-18.5c0.3,1.6,1.1,3.1,2.3,4.3c1.7,1.7,3.6,2.5,6,2.5c2.1,0,3.9-0.7,5.5-2C154.4,47.3,154.7,47.2,155.1,47.2z
		 M156.9,39.4c-0.3-1.6-1.1-3.1-2.3-4.3c-1.7-1.7-3.6-2.5-6-2.5s-4.3,0.8-6,2.5c-1.2,1.2-2,2.7-2.3,4.3H156.9z"/>
	<path d="M168.9,50.4c0,0.7-0.2,1.3-0.7,1.8s-1.1,0.7-1.8,0.7s-1.3-0.2-1.8-0.7s-0.7-1.1-0.7-1.8s0.2-1.3,0.7-1.8s1.1-0.7,1.8-0.7
		s1.3,0.2,1.8,0.7C168.7,49.1,168.9,49.7,168.9,50.4z"/>
	<path d="M192.6,49.4c-2.4,2.4-5.2,3.6-8.5,3.6s-6.1-1.2-8.4-3.5s-3.5-5.1-3.5-8.4c0-3.3,1.2-6.1,3.5-8.4c2.3-2.3,5.1-3.5,8.4-3.5
		s6.1,1.2,8.4,3.5c2.3,2.3,3.5,5.1,3.5,8.4v10.2c0,0.5-0.2,0.9-0.5,1.2s-0.7,0.5-1.2,0.5s-0.9-0.2-1.2-0.5s-0.5-0.7-0.5-1.2V49.4z
		 M184.2,32.7c-2.3,0-4.3,0.8-6,2.5s-2.5,3.6-2.5,6c0,2.3,0.8,4.3,2.5,6s3.6,2.5,6,2.5s4.3-0.8,6-2.5s2.5-3.6,2.5-6
		c0-2.3-0.8-4.3-2.5-6S186.5,32.7,184.2,32.7z"/>
	<path d="M204.9,24.2c0,0.6-0.2,1.1-0.6,1.5c-0.4,0.4-0.9,0.6-1.5,0.6s-1.1-0.2-1.5-0.6s-0.6-0.9-0.6-1.5s0.2-1.1,0.6-1.5
		c0.4-0.4,0.9-0.6,1.5-0.6s1.1,0.2,1.5,0.6C204.7,23.1,204.9,23.6,204.9,24.2z M201.1,31c0-0.5,0.2-0.9,0.5-1.2
		c0.3-0.3,0.7-0.5,1.2-0.5s0.9,0.2,1.2,0.5s0.5,0.7,0.5,1.2v20.3c0,0.5-0.2,0.9-0.5,1.2s-0.7,0.5-1.2,0.5s-0.9-0.2-1.2-0.5
		s-0.5-0.7-0.5-1.2V31z"/>
</g>
</svg>
